<mxfile host="app.diagrams.net" modified="2023-10-17T05:35:19.114Z" agent="Mozilla/5.0 (Windows NT 10.0; Win64; x64) AppleWebKit/537.36 (KHTML, like Gecko) Chrome/116.0.5845.881 YaBrowser/23.9.2.881 Yowser/2.5 Safari/537.36" etag="OE8tnyY1JjNvPmPhEod0" version="22.0.4" type="device">
  <diagram name="Страница — 1" id="5QjzEZ3fUywYeSEZvVI5">
    <mxGraphModel dx="1242" dy="575" grid="1" gridSize="10" guides="1" tooltips="1" connect="1" arrows="1" fold="1" page="1" pageScale="1" pageWidth="827" pageHeight="1169" math="0" shadow="0">
      <root>
        <mxCell id="0" />
        <mxCell id="1" parent="0" />
        <mxCell id="flsAWzr55s7OZPSBNNrJ-1" value="Component" style="swimlane;fontStyle=0;childLayout=stackLayout;horizontal=1;startSize=26;fillColor=none;horizontalStack=0;resizeParent=1;resizeParentMax=0;resizeLast=0;collapsible=1;marginBottom=0;whiteSpace=wrap;html=1;" vertex="1" parent="1">
          <mxGeometry x="340" y="240" width="140" height="52" as="geometry" />
        </mxCell>
        <mxCell id="flsAWzr55s7OZPSBNNrJ-2" value="+ Operation()" style="text;strokeColor=none;fillColor=none;align=left;verticalAlign=top;spacingLeft=4;spacingRight=4;overflow=hidden;rotatable=0;points=[[0,0.5],[1,0.5]];portConstraint=eastwest;whiteSpace=wrap;html=1;" vertex="1" parent="flsAWzr55s7OZPSBNNrJ-1">
          <mxGeometry y="26" width="140" height="26" as="geometry" />
        </mxCell>
        <mxCell id="flsAWzr55s7OZPSBNNrJ-16" value="ConcreateComponent" style="swimlane;fontStyle=0;childLayout=stackLayout;horizontal=1;startSize=26;fillColor=none;horizontalStack=0;resizeParent=1;resizeParentMax=0;resizeLast=0;collapsible=1;marginBottom=0;whiteSpace=wrap;html=1;" vertex="1" parent="1">
          <mxGeometry x="170" y="340" width="140" height="78" as="geometry" />
        </mxCell>
        <mxCell id="flsAWzr55s7OZPSBNNrJ-17" value="+ Operation()" style="text;strokeColor=none;fillColor=none;align=left;verticalAlign=top;spacingLeft=4;spacingRight=4;overflow=hidden;rotatable=0;points=[[0,0.5],[1,0.5]];portConstraint=eastwest;whiteSpace=wrap;html=1;" vertex="1" parent="flsAWzr55s7OZPSBNNrJ-16">
          <mxGeometry y="26" width="140" height="26" as="geometry" />
        </mxCell>
        <mxCell id="flsAWzr55s7OZPSBNNrJ-18" value="-memberName" style="text;strokeColor=none;fillColor=none;align=left;verticalAlign=top;spacingLeft=4;spacingRight=4;overflow=hidden;rotatable=0;points=[[0,0.5],[1,0.5]];portConstraint=eastwest;whiteSpace=wrap;html=1;" vertex="1" parent="flsAWzr55s7OZPSBNNrJ-16">
          <mxGeometry y="52" width="140" height="26" as="geometry" />
        </mxCell>
        <mxCell id="flsAWzr55s7OZPSBNNrJ-5" value="Decorator" style="swimlane;fontStyle=0;childLayout=stackLayout;horizontal=1;startSize=26;fillColor=none;horizontalStack=0;resizeParent=1;resizeParentMax=0;resizeLast=0;collapsible=1;marginBottom=0;whiteSpace=wrap;html=1;" vertex="1" parent="1">
          <mxGeometry x="480" y="330" width="140" height="78" as="geometry" />
        </mxCell>
        <mxCell id="flsAWzr55s7OZPSBNNrJ-6" value="+ Operation()" style="text;strokeColor=none;fillColor=none;align=left;verticalAlign=top;spacingLeft=4;spacingRight=4;overflow=hidden;rotatable=0;points=[[0,0.5],[1,0.5]];portConstraint=eastwest;whiteSpace=wrap;html=1;" vertex="1" parent="flsAWzr55s7OZPSBNNrJ-5">
          <mxGeometry y="26" width="140" height="26" as="geometry" />
        </mxCell>
        <mxCell id="flsAWzr55s7OZPSBNNrJ-7" value="- m_component" style="text;strokeColor=none;fillColor=none;align=left;verticalAlign=top;spacingLeft=4;spacingRight=4;overflow=hidden;rotatable=0;points=[[0,0.5],[1,0.5]];portConstraint=eastwest;whiteSpace=wrap;html=1;" vertex="1" parent="flsAWzr55s7OZPSBNNrJ-5">
          <mxGeometry y="52" width="140" height="26" as="geometry" />
        </mxCell>
        <mxCell id="flsAWzr55s7OZPSBNNrJ-9" value="ConcreateDecoratorA" style="swimlane;fontStyle=0;childLayout=stackLayout;horizontal=1;startSize=26;fillColor=none;horizontalStack=0;resizeParent=1;resizeParentMax=0;resizeLast=0;collapsible=1;marginBottom=0;whiteSpace=wrap;html=1;" vertex="1" parent="1">
          <mxGeometry x="360" y="460" width="140" height="78" as="geometry" />
        </mxCell>
        <mxCell id="flsAWzr55s7OZPSBNNrJ-10" value="+ Operation()" style="text;strokeColor=none;fillColor=none;align=left;verticalAlign=top;spacingLeft=4;spacingRight=4;overflow=hidden;rotatable=0;points=[[0,0.5],[1,0.5]];portConstraint=eastwest;whiteSpace=wrap;html=1;" vertex="1" parent="flsAWzr55s7OZPSBNNrJ-9">
          <mxGeometry y="26" width="140" height="26" as="geometry" />
        </mxCell>
        <mxCell id="flsAWzr55s7OZPSBNNrJ-11" value="-AddedState" style="text;strokeColor=none;fillColor=none;align=left;verticalAlign=top;spacingLeft=4;spacingRight=4;overflow=hidden;rotatable=0;points=[[0,0.5],[1,0.5]];portConstraint=eastwest;whiteSpace=wrap;html=1;" vertex="1" parent="flsAWzr55s7OZPSBNNrJ-9">
          <mxGeometry y="52" width="140" height="26" as="geometry" />
        </mxCell>
        <mxCell id="flsAWzr55s7OZPSBNNrJ-13" value="ConcreateDecoratorB" style="swimlane;fontStyle=0;childLayout=stackLayout;horizontal=1;startSize=26;fillColor=none;horizontalStack=0;resizeParent=1;resizeParentMax=0;resizeLast=0;collapsible=1;marginBottom=0;whiteSpace=wrap;html=1;" vertex="1" parent="1">
          <mxGeometry x="610" y="500" width="140" height="78" as="geometry" />
        </mxCell>
        <mxCell id="flsAWzr55s7OZPSBNNrJ-14" value="+ Operation()" style="text;strokeColor=none;fillColor=none;align=left;verticalAlign=top;spacingLeft=4;spacingRight=4;overflow=hidden;rotatable=0;points=[[0,0.5],[1,0.5]];portConstraint=eastwest;whiteSpace=wrap;html=1;" vertex="1" parent="flsAWzr55s7OZPSBNNrJ-13">
          <mxGeometry y="26" width="140" height="26" as="geometry" />
        </mxCell>
        <mxCell id="flsAWzr55s7OZPSBNNrJ-15" value="+AddedBehavior" style="text;strokeColor=none;fillColor=none;align=left;verticalAlign=top;spacingLeft=4;spacingRight=4;overflow=hidden;rotatable=0;points=[[0,0.5],[1,0.5]];portConstraint=eastwest;whiteSpace=wrap;html=1;" vertex="1" parent="flsAWzr55s7OZPSBNNrJ-13">
          <mxGeometry y="52" width="140" height="26" as="geometry" />
        </mxCell>
        <mxCell id="flsAWzr55s7OZPSBNNrJ-19" value="Extends" style="endArrow=block;endSize=16;endFill=0;html=1;rounded=0;entryX=0.363;entryY=0.985;entryDx=0;entryDy=0;entryPerimeter=0;exitX=0.583;exitY=0.015;exitDx=0;exitDy=0;exitPerimeter=0;" edge="1" parent="1" source="flsAWzr55s7OZPSBNNrJ-16" target="flsAWzr55s7OZPSBNNrJ-2">
          <mxGeometry width="160" relative="1" as="geometry">
            <mxPoint x="260" y="440" as="sourcePoint" />
            <mxPoint x="420" y="440" as="targetPoint" />
          </mxGeometry>
        </mxCell>
        <mxCell id="flsAWzr55s7OZPSBNNrJ-20" value="Extends" style="endArrow=block;endSize=16;endFill=0;html=1;rounded=0;entryX=0.517;entryY=1.046;entryDx=0;entryDy=0;entryPerimeter=0;exitX=0.5;exitY=0;exitDx=0;exitDy=0;" edge="1" parent="1" source="flsAWzr55s7OZPSBNNrJ-5" target="flsAWzr55s7OZPSBNNrJ-2">
          <mxGeometry width="160" relative="1" as="geometry">
            <mxPoint x="262" y="351" as="sourcePoint" />
            <mxPoint x="401" y="302" as="targetPoint" />
          </mxGeometry>
        </mxCell>
        <mxCell id="flsAWzr55s7OZPSBNNrJ-21" value="Extends" style="endArrow=block;endSize=16;endFill=0;html=1;rounded=0;entryX=0.454;entryY=1.015;entryDx=0;entryDy=0;entryPerimeter=0;exitX=0.397;exitY=-0.046;exitDx=0;exitDy=0;exitPerimeter=0;" edge="1" parent="1" source="flsAWzr55s7OZPSBNNrJ-9" target="flsAWzr55s7OZPSBNNrJ-7">
          <mxGeometry width="160" relative="1" as="geometry">
            <mxPoint x="498" y="427" as="sourcePoint" />
            <mxPoint x="360" y="390" as="targetPoint" />
          </mxGeometry>
        </mxCell>
        <mxCell id="flsAWzr55s7OZPSBNNrJ-22" value="Extends" style="endArrow=block;endSize=16;endFill=0;html=1;rounded=0;entryX=0.643;entryY=1.077;entryDx=0;entryDy=0;entryPerimeter=0;exitX=0.5;exitY=0;exitDx=0;exitDy=0;" edge="1" parent="1" source="flsAWzr55s7OZPSBNNrJ-13" target="flsAWzr55s7OZPSBNNrJ-7">
          <mxGeometry width="160" relative="1" as="geometry">
            <mxPoint x="520" y="478" as="sourcePoint" />
            <mxPoint x="648" y="430" as="targetPoint" />
          </mxGeometry>
        </mxCell>
        <mxCell id="flsAWzr55s7OZPSBNNrJ-23" value="" style="endArrow=diamondThin;endFill=0;endSize=24;html=1;rounded=0;entryX=1;entryY=0.5;entryDx=0;entryDy=0;exitX=1;exitY=0.5;exitDx=0;exitDy=0;" edge="1" parent="1" source="flsAWzr55s7OZPSBNNrJ-1" target="flsAWzr55s7OZPSBNNrJ-6">
          <mxGeometry width="160" relative="1" as="geometry">
            <mxPoint x="370" y="380" as="sourcePoint" />
            <mxPoint x="530" y="380" as="targetPoint" />
            <Array as="points">
              <mxPoint x="680" y="250" />
            </Array>
          </mxGeometry>
        </mxCell>
      </root>
    </mxGraphModel>
  </diagram>
</mxfile>
